<?xml version="1.0" encoding="iso-8859-1"?>
<!-- Uploaded to: SVG Repo, www.svgrepo.com, Generator: SVG Repo Mixer Tools -->
<svg version="1.1" id="Layer_1" xmlns="http://www.w3.org/2000/svg" xmlns:xlink="http://www.w3.org/1999/xlink" 
	 viewBox="0 0 512 512" xml:space="preserve">
<rect x="256" y="19.373" style="fill:#FFD159;" width="66.422" height="44.281"/>
<path style="fill:#7F7774;" d="M256,0c-4.586,0-8.303,3.716-8.303,8.303v121.773h16.605V8.303C264.303,3.716,260.586,0,256,0z"/>
<polygon style="fill:#D8D1D0;" points="452.497,467.719 507.849,445.578 507.849,251.849 452.497,229.708 "/>
<polygon style="fill:#F0EBEA;" points="474.638,229.708 4.151,251.849 4.151,445.578 474.638,467.719 "/>
<polygon style="fill:#7F7774;" points="474.638,512 507.849,512 507.849,445.578 474.638,445.578 452.497,478.789 "/>
<rect x="4.151" y="445.578" style="fill:#A99E9B;" width="470.487" height="66.422"/>
<polygon style="fill:#95341D;" points="474.638,185.427 452.497,218.638 474.638,251.849 507.849,251.849 507.849,185.427 "/>
<rect x="4.151" y="185.427" style="fill:#E26142;" width="470.487" height="66.422"/>
<polygon style="fill:#C1B8B5;" points="256,107.935 150.832,147.998 150.832,181.209 316.887,489.859 361.168,478.789 
	361.168,147.998 "/>
<polygon style="fill:#D8D1D0;" points="256,141.146 150.832,181.209 150.832,478.789 327.957,478.789 327.957,168.558 "/>
<g>
	<circle style="fill:#FFFFFF;" cx="256" cy="218.638" r="33.211"/>
	<rect x="184.043" y="345.946" style="fill:#FFFFFF;" width="71.957" height="99.632"/>
</g>
<rect x="256" y="345.946" style="fill:#D1FDF2;" width="71.957" height="99.632"/>
<polygon style="fill:#7F7774;" points="294.746,445.578 283.676,489.859 327.957,489.859 327.957,445.578 "/>
<rect x="184.043" y="445.578" style="fill:#A99E9B;" width="110.703" height="44.281"/>
<polygon style="fill:#554F4E;" points="327.957,478.789 316.887,495.395 327.957,512 361.168,512 361.168,478.789 "/>
<rect x="150.832" y="478.789" style="fill:#7F7774;" width="177.124" height="33.211"/>
<path style="fill:#E26142;" d="M372.237,160.521c-0.983,0-1.982-0.175-2.955-0.546L256,116.82l-113.282,43.155
	c-4.285,1.633-9.082-0.518-10.715-4.803s0.518-9.082,4.803-10.715l116.238-44.281c1.903-0.724,4.009-0.724,5.912,0l116.238,44.281
	c4.285,1.633,6.435,6.43,4.803,10.715C378.735,158.484,375.582,160.521,372.237,160.521z"/>
<g>
	<path style="fill:#7F7774;" d="M52.584,412.368c-4.586,0-8.303-3.716-8.303-8.303v-33.211c0-4.586,3.716-8.303,8.303-8.303
		s8.303,3.716,8.303,8.303v33.211C60.886,408.651,57.17,412.368,52.584,412.368z"/>
	<path style="fill:#7F7774;" d="M102.4,412.368c-4.586,0-8.303-3.716-8.303-8.303v-33.211c0-4.586,3.716-8.303,8.303-8.303
		s8.303,3.716,8.303,8.303v33.211C110.703,408.651,106.986,412.368,102.4,412.368z"/>
	<path style="fill:#7F7774;" d="M52.584,334.876c-4.586,0-8.303-3.716-8.303-8.303v-33.211c0-4.586,3.716-8.303,8.303-8.303
		s8.303,3.716,8.303,8.303v33.211C60.886,331.159,57.17,334.876,52.584,334.876z"/>
	<path style="fill:#7F7774;" d="M102.4,334.876c-4.586,0-8.303-3.716-8.303-8.303v-33.211c0-4.586,3.716-8.303,8.303-8.303
		s8.303,3.716,8.303,8.303v33.211C110.703,331.159,106.986,334.876,102.4,334.876z"/>
</g>
<g>
	<path style="fill:#554F4E;" d="M459.416,412.368c-4.586,0-8.303-3.716-8.303-8.303v-33.211c0-4.586,3.716-8.303,8.303-8.303
		s8.303,3.716,8.303,8.303v33.211C467.719,408.651,464.003,412.368,459.416,412.368z"/>
	<path style="fill:#554F4E;" d="M409.6,412.368c-4.586,0-8.303-3.716-8.303-8.303v-33.211c0-4.586,3.716-8.303,8.303-8.303
		s8.303,3.716,8.303,8.303v33.211C417.903,408.651,414.186,412.368,409.6,412.368z"/>
	<path style="fill:#554F4E;" d="M459.416,334.876c-4.586,0-8.303-3.716-8.303-8.303v-33.211c0-4.586,3.716-8.303,8.303-8.303
		s8.303,3.716,8.303,8.303v33.211C467.719,331.159,464.003,334.876,459.416,334.876z"/>
	<path style="fill:#554F4E;" d="M409.6,334.876c-4.586,0-8.303-3.716-8.303-8.303v-33.211c0-4.586,3.716-8.303,8.303-8.303
		s8.303,3.716,8.303,8.303v33.211C417.903,331.159,414.186,334.876,409.6,334.876z"/>
</g>
</svg>